<?xml version="1.0" standalone="no"?>
<!DOCTYPE svg PUBLIC "-//W3C//DTD SVG 1.1//EN" "http://www.w3.org/Graphics/SVG/1.1/DTD/svg11.dtd" >
<svg xmlns="http://www.w3.org/2000/svg">
<metadata>Generated by IcoMoon</metadata>
<defs>
<font id="icomoon" horiz-adv-x="1024">
<font-face units-per-em="1024" ascent="960" descent="-64" />
<missing-glyph horiz-adv-x="1024" />
<glyph unicode="&#x20;" horiz-adv-x="512" d="" />
<glyph unicode="&#xe90f;" glyph-name="bag-2" d="M851.627 577.707c-28.587 31.573-71.68 49.92-131.413 56.32v32.427c0 58.453-24.747 114.773-68.267 154.027-43.947 40.107-101.121 58.88-160.427 53.333-101.973-9.813-187.733-108.373-187.733-215.040v-24.747c-59.733-6.4-102.827-24.747-131.413-56.32-41.387-46.080-40.107-107.52-35.413-150.187l29.867-237.654c8.96-83.2 42.667-168.533 226.133-168.533h238.081c183.467 0 217.173 85.333 226.133 168.107l29.867 238.507c4.693 42.24 5.547 103.68-35.413 149.76zM497.493 814.507c42.667 3.84 83.201-9.387 114.774-37.973 31.147-28.16 48.64-68.267 48.64-110.080v-29.867h-297.814v22.187c0 75.947 62.72 148.907 134.4 155.733zM359.253 398.934h-0.427c-23.467 0-42.667 19.2-42.667 42.667s19.2 42.667 42.667 42.667c23.893 0 43.093-19.2 43.093-42.667s-19.2-42.667-42.667-42.667zM657.92 398.934h-0.427c-23.467 0-42.667 19.2-42.667 42.667s19.2 42.667 42.667 42.667c23.893 0 43.093-19.2 43.093-42.667s-19.2-42.667-42.667-42.667z" />
<glyph unicode="&#xe910;" glyph-name="briefcase" d="M899.834 662.175c-36.262 40.107-96.851 60.16-184.742 60.16h-10.24v1.707c0 71.68 0 160.426-160.428 160.426h-64.853c-160.427 0-160.427-89.173-160.427-160.426v-2.134h-10.24c-88.32 0-148.48-20.053-184.747-60.16-42.24-46.933-40.96-110.080-36.693-153.173l0.427-2.987 2.824-29.65c0.913-9.585 6.081-18.254 14.155-23.5 10.263-6.669 24.421-15.693 33.368-20.663 5.974-3.84 12.374-7.253 18.774-10.667 72.96-40.106 153.173-66.986 234.666-80.213 3.84-40.108 21.334-87.039 114.774-87.039s111.786 46.509 114.773 87.892c87.039 14.080 171.091 44.374 247.039 88.747 2.56 1.28 4.269 2.56 6.4 3.84 15.603 8.817 31.738 19.522 46.707 30.185 7.264 5.176 11.878 13.255 12.864 22.12l0.16 1.455 2.138 20.053c0.422 2.56 0.422 4.694 0.851 7.68 3.411 43.094 2.56 101.974-37.549 146.347zM558.503 369.908c0-45.226 0-52.052-52.48-52.052s-52.48 8.106-52.48 51.626v53.76h104.96v-53.334zM380.156 722.335v1.707c0 72.533 0 99.413 99.414 99.413h64.853c99.411 0 99.411-27.307 99.411-99.413v-2.134h-263.677v0.427zM873.318 365.844c22.701 10.619 48.774-7.358 46.509-32.317l-13.581-149.643c-8.96-85.331-43.949-172.371-231.68-172.371h-325.123c-187.734 0-222.72 87.040-231.68 171.942l-12.845 141.303c-2.243 24.669 23.225 42.624 45.857 32.554 48.623-21.633 121.614-52.539 171.13-66.376 10.47-2.925 18.952-10.502 23.951-20.16 26.934-52.019 82.081-79.642 160.602-79.642 77.75 0 133.54 28.691 160.589 80.909 5.005 9.664 13.517 17.242 23.994 20.192 52.787 14.874 131.046 49.642 182.278 73.608z" />
<glyph unicode="&#xe911;" glyph-name="call-calling1" d="M751.789 501.329c-18.349 0-32.851 14.933-32.851 32.853 0 15.787-15.789 48.64-42.24 77.227-26.029 27.733-54.615 43.946-78.508 43.946-18.347 0-32.854 14.934-32.854 32.854s14.934 32.853 32.854 32.853c42.668 0 87.468-23.040 126.719-64.427 36.691-38.826 60.16-87.040 60.16-122.026 0-18.347-14.931-33.28-33.28-33.28zM905.811 501.323c-18.349 0-32.851 14.933-32.851 32.853 0 151.467-123.309 274.347-274.349 274.347-18.347 0-32.853 14.933-32.853 32.853s14.506 33.28 32.426 33.28c187.736 0 340.478-152.746 340.478-340.48 0-17.92-14.931-32.853-32.851-32.853zM471.469 322.123l-78.934-78.936c-16.64-16.64-43.093-16.64-60.16-0.422-4.693 4.691-9.386 8.96-14.080 13.651-43.946 44.371-83.626 90.88-119.040 139.52-34.986 48.64-63.146 97.28-83.626 145.494-20.054 48.64-30.294 95.146-30.294 139.52 0 29.013 5.12 56.746 15.36 82.346 10.24 26.027 26.454 49.92 49.067 71.254 27.307 26.88 57.173 40.106 88.747 40.106 11.946 0 23.893-2.56 34.56-7.68 11.093-5.12 20.906-12.8 28.586-23.893l98.987-139.52c7.68-10.667 13.227-20.48 17.067-29.867 3.84-8.96 5.973-17.92 5.973-26.026 0-10.24-2.987-20.48-8.96-30.294-5.547-9.813-13.653-20.053-23.893-30.293l-32.427-33.707c-4.693-4.693-6.827-10.24-6.827-17.066 0-3.414 0.427-6.4 1.28-9.814 1.28-3.413 2.56-5.973 3.414-8.533 7.68-14.080 20.906-32.427 39.68-54.613 19.2-22.187 39.68-44.8 61.866-67.414 4.267-4.266 8.96-8.533 13.227-12.8 17.067-16.64 17.493-43.946 0.427-61.013zM937.389 177.926c0-11.942-2.131-24.32-6.4-36.262-1.28-3.418-2.56-6.829-4.269-10.24-7.251-15.36-16.64-29.869-29.011-43.52-20.909-23.040-43.949-39.68-69.971-50.349-0.429 0-0.858-0.429-1.28-0.429-25.178-10.24-52.48-15.782-81.92-15.782-43.52 0-90.029 10.24-139.096 31.142-49.066 20.909-98.133 49.069-146.773 84.48-16.64 12.378-33.28 24.749-49.067 37.978l139.52 139.52c11.947-8.96 22.614-15.789 31.574-20.48 2.133-0.858 4.693-2.138 7.68-3.418 3.413-1.28 6.826-1.702 10.666-1.702 7.254 0 12.8 2.56 17.494 7.251l32.425 32c10.669 10.667 20.909 18.774 30.72 23.894 9.818 5.973 19.629 8.96 30.298 8.96 8.102 0 16.64-1.707 26.022-5.547 9.389-3.84 19.2-9.387 29.869-16.64l141.229-100.267c11.091-7.68 18.771-16.64 23.462-27.309 4.269-10.662 6.829-21.331 6.829-33.28z" />
<glyph unicode="&#xe912;" glyph-name="discount-shape" d="M918.611 496.213l-64.851 64.853c-11.091 11.094-20.051 32.854-20.051 48.214v92.16c0 37.546-30.72 68.266-68.269 68.266h-91.731c-15.36 0-37.122 8.96-48.215 20.054l-64.854 64.853c-26.453 26.453-69.973 26.453-96.426 0l-65.707-64.853c-10.667-11.094-32.427-20.054-48.213-20.054h-91.734c-37.546 0-68.266-30.72-68.266-68.266v-91.734c0-15.36-8.96-37.12-20.054-48.213l-64.853-64.853c-26.453-26.454-26.453-69.974 0-96.427l64.853-64.853c11.094-11.094 20.054-32.851 20.054-48.211v-91.738c0-37.542 30.72-68.262 68.266-68.262h91.734c15.36 0 37.12-8.96 48.213-20.058l64.853-64.851c26.454-26.451 69.974-26.451 96.427 0l64.853 64.851c11.094 11.098 32.851 20.058 48.211 20.058h91.738c37.542 0 68.262 30.72 68.262 68.262v91.738c0 15.36 8.96 37.117 20.058 48.211l64.851 64.853c27.731 26.027 27.731 69.547 0.851 96zM341.334 576c0 23.466 19.2 42.666 42.666 42.666s42.667-19.2 42.667-42.666c0-23.467-18.773-42.667-42.667-42.667-23.466 0-42.666 19.2-42.666 42.667zM406.614 297.389c-6.4-6.4-14.507-9.389-22.614-9.389s-16.213 2.989-22.613 9.389c-12.373 12.371-12.373 32.851 0 45.224l256 256c12.373 12.373 32.853 12.373 45.224 0 12.378-12.373 12.378-32.853 0-45.227l-255.997-255.997zM640 277.331c-23.893 0-43.093 19.2-43.093 42.669 0 23.466 19.2 42.666 42.667 42.666s42.666-19.2 42.666-42.666c0-23.469-18.771-42.669-42.24-42.669z" />
<glyph unicode="&#xe913;" glyph-name="document-text" d="M682.669 874.668h-341.336c-149.333 0-213.333-85.334-213.333-213.334v-426.666c0-128 64-213.331 213.333-213.331h341.336c149.331 0 213.331 85.331 213.331 213.331v426.666c0 128-64 213.334-213.331 213.334zM341.333 437.334h170.667c17.493 0 32-14.506 32-32s-14.507-32-32-32h-170.667c-17.493 0-32 14.507-32 32s14.507 32 32 32zM682.669 202.669h-341.336c-17.493 0-32 14.509-32 32s14.507 32 32 32h341.336c17.491 0 32-14.509 32-32s-14.509-32-32-32zM789.331 565.334h-85.331c-64.853 0-117.333 52.48-117.333 117.334v85.333c0 17.493 14.506 32 32 32s32.002-14.507 32.002-32v-85.333c0-29.44 23.891-53.334 53.331-53.334h85.331c17.498 0 32-14.506 32-32s-14.502-32-32-32z" />
<glyph unicode="&#xe914;" glyph-name="element-3" d="M938.667 596.48v193.707c0 60.16-27.307 84.48-95.147 84.48h-172.373c-67.84 0-95.147-24.32-95.147-84.48v-193.28c0-60.587 27.307-84.48 95.147-84.48h172.373c67.84-0.427 95.147 23.893 95.147 84.053zM938.667 116.48v172.373c0 67.84-27.307 95.147-95.147 95.147h-172.373c-67.84 0-95.147-27.307-95.147-95.147v-172.373c0-67.84 27.307-95.147 95.147-95.147h172.373c67.84 0 95.147 27.307 95.147 95.147zM448 596.48v193.707c0 60.16-27.307 84.48-95.147 84.48h-172.373c-67.84 0-95.147-24.32-95.147-84.48v-193.28c0-60.587 27.307-84.48 95.147-84.48h172.373c67.84-0.427 95.147 23.893 95.147 84.053zM448 116.48v172.373c0 67.84-27.307 95.147-95.147 95.147h-172.373c-67.84 0-95.147-27.307-95.147-95.147v-172.373c0-67.84 27.307-95.147 95.147-95.147h172.373c67.84 0 95.147 27.307 95.147 95.147z" />
<glyph unicode="&#xe915;" glyph-name="gallery" d="M110.078 148.896l-0.853-0.854c-11.52 25.174-18.773 53.76-21.76 85.334 2.987-31.149 11.093-59.309 22.613-84.48zM384 517.126c56.083 0 101.546 45.462 101.546 101.546s-45.462 101.547-101.546 101.547c-56.083 0-101.547-45.464-101.547-101.547s45.464-101.546 101.547-101.546zM690.771 874.656h-357.546c-155.307 0-247.893-92.587-247.893-247.895v-357.546c0-46.506 8.107-87.040 23.893-121.174 36.693-81.066 115.2-126.72 224-126.72h357.546c155.309 0 247.894 92.589 247.894 247.894v357.546c0 155.308-92.586 247.895-247.894 247.895zM869.12 426.656c-33.28 28.586-87.040 28.586-120.32 0l-177.494-152.32c-33.28-28.586-87.040-28.586-120.32 0l-14.506 11.946c-30.294 26.454-78.509 29.014-112.64 5.974l-159.575-107.094c-9.387 23.894-14.933 51.629-14.933 84.054v357.546c0 120.321 63.573 183.895 183.893 183.895h357.546c120.32 0 183.894-63.573 183.894-183.895v-204.8l-5.546 4.694z" />
<glyph unicode="&#xe916;" glyph-name="home" d="M888.742 618.228l-279.469 223.574c-54.613 43.52-139.946 43.946-194.133 0.427l-279.467-224.001c-40.106-32-64.426-95.999-55.893-146.346l53.76-321.706c12.373-72.109 79.36-128.851 152.32-128.851h452.265c72.109 0 140.378 58.022 152.749 129.28l53.76 321.704c7.68 49.92-16.64 113.919-55.891 145.919zM543.993 191.987c0-17.491-14.506-32-32-32s-32 14.509-32 32v128c0 17.495 14.507 32.002 32 32.002s32-14.507 32-32.002v-128z" />
<glyph unicode="&#xe917;" glyph-name="messages-21" d="M788.058 241.907l16.64-134.822c4.269-35.418-33.709-60.16-64-41.818l-147.628 87.898c-10.24 5.971-12.8 18.771-7.254 29.011 21.334 39.251 32.854 83.629 32.854 128 0 156.16-133.974 283.307-298.667 283.307-33.707 0-66.56-5.12-97.28-15.36-15.787-5.12-31.147 9.387-27.307 25.6 38.827 155.307 188.161 270.933 366.507 270.933 208.214 0 376.746-157.44 376.746-351.573 0-115.2-59.302-217.176-150.611-281.176zM554.669 310.195c0-50.778-18.774-97.709-50.347-134.829-42.24-51.2-109.227-84.051-184.32-84.051l-111.36-66.138c-18.773-11.52-42.667 4.269-40.107 26.029l10.667 84.051c-57.173 39.68-93.867 103.258-93.867 174.938 0 75.091 40.107 141.225 101.547 180.478 37.973 24.747 83.627 38.827 133.12 38.827 129.707 0 234.667-98.134 234.667-219.305z" />
<glyph unicode="&#xe918;" glyph-name="more-square" d="M690.771 874.656h-357.549c-155.307 0-247.894-92.586-247.894-247.893v-357.118c0-155.738 92.587-248.32 247.894-248.32h357.121c155.309 0 247.891 92.582 247.891 247.891v357.547c0.429 155.307-92.16 247.893-247.462 247.893zM341.328 405.323c-23.893 0-42.666 19.2-42.666 42.667s19.2 42.666 42.666 42.666c23.467 0 42.667-19.2 42.667-42.666s-18.773-42.667-42.667-42.667zM511.995 405.323c-23.893 0-42.667 19.2-42.667 42.667s19.2 42.666 42.667 42.666c23.467 0 42.667-19.2 42.667-42.666s-18.774-42.667-42.667-42.667zM682.662 405.323c-23.891 0-42.668 19.2-42.668 42.667s19.199 42.666 42.668 42.666c23.469 0 42.669-19.2 42.669-42.666s-18.778-42.667-42.669-42.667z" />
<glyph unicode="&#xe919;" glyph-name="profile-circle" d="M938.667 448c0 235.093-191.573 426.667-426.667 426.667s-426.667-191.573-426.667-426.667c0-123.733 53.333-235.093 137.813-313.173 0-0.427 0-0.427-0.427-0.853 4.267-4.267 9.387-7.68 13.653-11.52 2.56-2.133 4.693-4.267 7.253-5.973 7.68-6.4 16.213-12.373 24.32-18.347 2.987-2.133 5.547-3.84 8.533-5.973 8.107-5.547 16.64-10.667 25.6-15.36 2.987-1.707 6.4-3.84 9.387-5.547 8.533-4.693 17.493-8.96 26.88-12.8 3.413-1.707 6.827-3.413 10.24-4.693 9.387-3.84 18.773-7.253 28.16-10.24 3.413-1.28 6.827-2.56 10.24-3.413 10.24-2.987 20.48-5.547 30.72-8.107 2.987-0.853 5.973-1.707 9.387-2.133 11.947-2.56 23.893-4.267 36.267-5.547 1.707 0 3.413-0.427 5.12-0.853 14.507-1.28 29.013-2.133 43.52-2.133s29.013 0.853 43.093 2.133c1.707 0 3.413 0.427 5.12 0.853 12.373 1.28 24.32 2.987 36.267 5.547 2.987 0.427 5.973 1.707 9.387 2.133 10.24 2.56 20.907 4.693 30.72 8.107 3.413 1.28 6.827 2.56 10.24 3.413 9.387 3.413 19.2 6.4 28.16 10.24 3.413 1.28 6.827 2.987 10.24 4.693 8.96 3.84 17.92 8.107 26.88 12.8 3.413 1.707 6.4 3.84 9.387 5.547 8.533 5.12 17.067 9.813 25.6 15.36 2.987 1.707 5.547 3.84 8.533 5.973 8.533 5.973 16.64 11.947 24.32 18.347 2.56 2.133 4.693 4.267 7.253 5.973 4.693 3.84 9.387 7.68 13.653 11.52 0 0.427 0 0.427-0.427 0.853 84.907 78.080 138.24 189.44 138.24 313.173zM722.773 235.947c-115.627 77.653-305.067 77.653-421.547 0-18.773-12.373-34.133-26.88-46.933-42.667-64.853 65.707-104.96 155.733-104.96 254.72 0 200.107 162.56 362.667 362.667 362.667s362.667-162.56 362.667-362.667c0-98.987-40.107-189.013-104.96-254.72-12.373 15.787-28.16 30.293-46.933 42.667zM512 664.319c-88.32 0-160-71.68-160-160 0-86.613 67.84-157.013 157.867-159.573 1.28 0 2.987 0 3.84 0s2.133 0 2.987 0c0.427 0 0.853 0 0.853 0 86.187 2.987 154.027 72.959 154.453 159.573 0 88.32-71.68 160-160 160z" />
<glyph unicode="&#xe91a;" glyph-name="row-vertical" d="M849.067 384h-674.133c-64 0-89.6-27.307-89.6-95.147v-172.373c0-67.84 25.6-95.147 89.6-95.147h674.133c64 0 89.6 27.307 89.6 95.147v172.373c0 67.84-25.6 95.147-89.6 95.147zM849.067 874.667h-674.133c-64 0-89.6-27.307-89.6-95.147v-172.373c0-67.84 25.6-95.147 89.6-95.147h674.133c64 0 89.6 27.307 89.6 95.147v172.373c0 67.84-25.6 95.147-89.6 95.147z" />
<glyph unicode="&#xe91b;" glyph-name="send-2" d="M688.64 833.705l-385.279-128c-258.987-86.614-258.987-227.839 0-314.028l114.348-37.971 37.971-114.349c86.189-258.986 227.84-258.986 314.029 0l128.426 384.854c57.174 172.8-36.694 267.094-209.494 209.494zM702.294 604.157l-162.134-162.986c-6.4-6.4-14.506-9.386-22.611-9.386-8.109 0-16.214 2.986-22.614 9.386-12.374 12.374-12.374 32.854 0 45.226l162.134 162.988c12.371 12.373 32.851 12.373 45.226 0s12.374-32.854 0-45.228z" />
<glyph unicode="&#xe91c;" glyph-name="tick-circle" d="M511.995 874.656c-235.093 0-426.667-191.573-426.667-426.666s191.574-426.665 426.667-426.665c235.096 0 426.668 191.571 426.668 426.665s-191.571 426.666-426.668 426.666zM715.942 546.123l-241.921-241.918c-5.973-5.978-14.080-9.389-22.613-9.389s-16.64 3.411-22.613 9.389l-120.747 120.745c-12.373 12.373-12.373 32.853 0 45.226s32.853 12.374 45.227 0l98.133-98.133 219.306 219.307c12.378 12.373 32.858 12.373 45.229 0s12.371-32.427 0-45.227z" />
<glyph unicode="&#xe91d;" glyph-name="ticket-discount" d="M908.8 497.498c16.64 0 29.867 13.227 29.867 29.867v39.682c0 174.933-53.333 228.267-228.267 228.267h-396.8c-174.933 0-228.267-53.333-228.267-228.267v-20.053c0-16.642 13.227-29.868 29.867-29.868 38.4 0 69.547-31.147 69.547-69.547s-31.147-69.12-69.547-69.12c-16.64 0-29.867-13.227-29.867-29.867v-20.053c0-174.933 53.333-228.267 228.267-228.267h396.8c174.933 0 228.267 53.333 228.267 228.267 0 16.64-13.227 29.867-29.867 29.867-38.4 0-69.547 31.147-69.547 69.547s31.147 69.547 69.547 69.547zM384 581.126c23.467 0 42.667-19.2 42.667-42.667s-18.773-42.668-42.667-42.668c-23.467 0-42.667 19.2-42.667 42.668s18.773 42.667 42.667 42.667zM640 282.458c-23.893 0-43.093 19.2-43.093 42.667s19.2 42.667 42.667 42.667c23.467 0 42.667-19.2 42.667-42.667s-18.347-42.667-42.24-42.667zM678.4 555.526l-287.147-287.148c-6.4-6.4-14.507-9.387-22.613-9.387s-16.213 2.987-22.613 9.387c-12.373 12.373-12.373 32.853 0 45.227l287.147 287.148c12.373 12.373 32.853 12.373 45.227 0s12.373-32.853 0-45.227z" />
<glyph unicode="&#xe91e;" glyph-name="tick-square1" d="M690.771 874.672h-357.549c-155.307 0-247.894-92.587-247.894-247.893v-357.121c0-155.731 92.587-248.32 247.894-248.32h357.121c155.309 0 247.891 92.589 247.891 247.891v357.55c0.429 155.306-92.16 247.893-247.462 247.893zM715.942 546.139l-241.921-241.921c-5.974-5.971-14.080-9.389-22.614-9.389s-16.64 3.418-22.613 9.389l-120.747 120.748c-12.373 12.374-12.373 32.854 0 45.227s32.854 12.373 45.227 0l98.133-98.133 219.306 219.306c12.378 12.373 32.858 12.373 45.229 0s12.371-32.426 0-45.226z" />
<glyph unicode="&#xe91f;" glyph-name="add-circle1" d="M512 874.667c-235.093 0-426.667-191.573-426.667-426.667s191.573-426.667 426.667-426.667c235.093 0 426.667 191.573 426.667 426.667s-191.573 426.667-426.667 426.667zM682.667 416h-138.667v-138.667c0-17.493-14.507-32-32-32s-32 14.507-32 32v138.667h-138.667c-17.493 0-32 14.507-32 32s14.507 32 32 32h138.667v138.667c0 17.493 14.507 32 32 32s32-14.507 32-32v-138.667h138.667c17.493 0 32-14.507 32-32s-14.507-32-32-32z" />
<glyph unicode="&#xe921;" glyph-name="arrow-down" d="M764.576 611h-505.173c-40.96 0-61.44-49.494-32.427-78.507l221.013-221.012c35.414-35.418 93.014-35.418 128.427 0l221.011 221.012c28.589 29.013 8.109 78.507-32.851 78.507z" />
<glyph unicode="&#xe923;" glyph-name="bx-radio-circlesvg" d="M213.332 447.999c0-164.652 133.974-298.668 298.667-298.668 164.648 0 298.664 134.016 298.664 298.668s-134.016 298.667-298.664 298.667c-164.693 0-298.667-134.016-298.667-298.667zM725.331 447.999c0-117.632-95.7-213.331-213.332-213.331s-213.333 95.699-213.333 213.331c0 117.632 95.701 213.333 213.333 213.333s213.332-95.701 213.332-213.333z" />
<glyph unicode="&#xe924;" glyph-name="bx-radio-circle-markedsvg" d="M511.999 746.666c-164.651 0-298.667-134.016-298.667-298.667 0-164.652 134.016-298.668 298.667-298.668 164.648 0 298.664 134.016 298.664 298.668s-134.016 298.667-298.664 298.667zM511.999 234.669c-117.632 0-213.333 95.699-213.333 213.331s95.701 213.333 213.333 213.333c117.632 0 213.332-95.701 213.332-213.333s-95.7-213.331-213.332-213.331zM512 576c-69.419 0-128-58.581-128-128s58.581-128 128-128c69.419 0 128 58.581 128 128s-58.581 128-128 128z" />
<glyph unicode="&#xe925;" glyph-name="Call-Center" d="M832 560c0 84.869-33.715 166.263-93.726 226.274s-141.406 93.726-226.274 93.726c-83.827 0.015-164.311-32.863-224.151-91.566s-94.256-138.543-95.849-222.354c-25.461 0-49.879-10.114-67.882-28.118s-28.118-42.423-28.118-67.882v-128c0-25.459 10.114-49.877 28.118-67.883 18.004-18.001 42.421-28.117 67.882-28.117h64c25.461 0 49.879 10.116 67.882 28.117 18.004 18.005 28.118 42.423 28.118 67.883v128c0 25.459-10.114 49.877-28.118 67.882-18.004 18.004-42.421 28.118-67.882 28.118 1.588 66.836 29.259 130.4 77.097 177.102s112.049 72.837 178.903 72.818c67.895 0 133.009-26.971 181.018-74.981 48.013-48.009 74.982-113.124 74.982-181.019-25.459 0-49.877-10.114-67.883-28.117-18.001-18.005-28.117-42.423-28.117-67.883v-128c0.085-21.158 7.159-41.698 20.122-58.423 12.962-16.721 31.087-28.698 51.558-34.057-24.192-43.947-64.619-76.681-112.64-91.2-7.689 16.614-19.968 30.682-35.392 40.55-15.42 9.865-33.34 15.113-51.648 15.13h-64c-25.459 0-49.877-10.116-67.882-28.117-18.004-18.005-28.118-42.423-28.118-67.883s10.114-49.877 28.118-67.883c18.005-18.001 42.423-28.117 67.882-28.117h64c21.201 0.102 41.775 7.223 58.505 20.25s28.676 31.223 33.975 51.75c39.313 9.596 75.789 28.378 106.436 54.797 30.652 26.423 54.601 59.733 69.884 97.203h19.2c25.459 0 49.877 10.116 67.883 28.117 18.001 18.005 28.117 42.423 28.117 67.883v128c0 25.459-10.116 49.877-28.117 67.883-18.005 18.003-42.423 28.117-67.883 28.117zM288 470.080v-128c0-8.486-3.372-16.627-9.373-22.626-6.001-6.003-14.141-9.374-22.627-9.374h-64c-8.487 0-16.626 3.371-22.627 9.374-6.001 5.999-9.373 14.14-9.373 22.626v128c0 8.486 3.372 16.627 9.373 22.626 6.001 6.003 14.141 9.374 22.627 9.374h64c8.487 0 16.626-3.371 22.627-9.374 6.001-5.999 9.373-14.14 9.373-22.626zM544 80h-64c-8.486 0-16.627 3.371-22.626 9.374-6.003 5.999-9.374 14.14-9.374 22.626s3.371 16.627 9.374 22.626c5.999 6.003 14.14 9.374 22.626 9.374h64c8.486 0 16.627-3.371 22.626-9.374 6.003-5.999 9.374-14.14 9.374-22.626s-3.371-16.627-9.374-22.626c-5.999-6.003-14.14-9.374-22.626-9.374zM864 336c0-8.486-3.371-16.627-9.374-22.626-5.999-6.003-14.14-9.374-22.626-9.374h-64c-8.486 0-16.627 3.371-22.626 9.374-6.003 5.999-9.374 14.14-9.374 22.626v128c0 8.486 3.371 16.627 9.374 22.626 5.999 6.003 14.14 9.374 22.626 9.374h64c8.486 0 16.627-3.371 22.626-9.374 6.003-5.999 9.374-14.14 9.374-22.626v-128z" />
<glyph unicode="&#xe926;" glyph-name="card" d="M938.667 637.871c0-28.16-23.040-51.2-51.2-51.2h-750.933c-28.16 0-51.2 23.040-51.2 51.2v0.427c0 97.707 78.933 176.64 176.64 176.64h499.627c97.707 0 177.067-79.36 177.067-177.067zM85.333 471.467v-213.76c0-97.707 78.933-176.64 176.64-176.64h499.627c97.707 0 177.067 79.36 177.067 177.067v213.333c0 28.16-23.040 51.2-51.2 51.2h-750.933c-28.16 0-51.2-23.040-51.2-51.2zM341.333 224h-85.333c-17.493 0-32 14.507-32 32s14.507 32 32 32h85.333c17.493 0 32-14.507 32-32s-14.507-32-32-32zM618.667 224h-170.667c-17.493 0-32 14.507-32 32s14.507 32 32 32h170.667c17.493 0 32-14.507 32-32s-14.507-32-32-32z" />
<glyph unicode="&#xe927;" glyph-name="Chevron-Down---16px" d="M128 567.905l73.647 72.095 310.353-303.811 310.355 303.811 73.645-72.095-339.23-332.078c-24.879-24.352-64.662-24.352-89.54 0l-339.229 332.078z" />
<glyph unicode="&#xe929;" glyph-name="close-circle-bold" d="M512 874.667c-235.093 0-426.667-191.573-426.667-426.667s191.573-426.667 426.667-426.667c235.093 0 426.667 191.573 426.667 426.667s-191.573 426.667-426.667 426.667zM655.36 349.867c12.373-12.373 12.373-32.853 0-45.227-6.4-6.4-14.507-9.387-22.613-9.387s-16.213 2.987-22.613 9.387l-98.133 98.133-98.133-98.133c-6.4-6.4-14.507-9.387-22.613-9.387s-16.213 2.987-22.613 9.387c-12.373 12.373-12.373 32.853 0 45.227l98.133 98.133-98.133 98.133c-12.373 12.373-12.373 32.853 0 45.227s32.853 12.373 45.227 0l98.133-98.133 98.133 98.133c12.373 12.373 32.853 12.373 45.227 0s12.373-32.853 0-45.227l-98.133-98.133 98.133-98.133z" />
<glyph unicode="&#xe92a;" glyph-name="cookie-bite" d="M1021.037 448.369c-139.936 1.7-252.934 115.38-252.934 255.72-140.342 0-254.003 112.98-255.723 252.9-54.52 8.28-110.26-0.6-159.44-25.64l-138.26-70.44c-49.772-25.364-90.232-65.839-115.58-115.62l-70.2-137.76c-25.423-49.907-34.398-106.58-25.64-161.9l24.16-152.541c8.749-55.264 34.765-106.342 74.32-145.92l109.54-109.517c39.43-39.443 90.335-65.389 145.42-74.125l153.42-24.294c55.020-8.723 111.4 0.218 161.061 25.517l138.259 70.419c49.766 25.37 90.227 65.843 115.578 115.622l70.202 137.76c25.12 49.279 34.022 105.159 25.818 159.819zM352 224.006c-35.34 0-64 28.666-64 64 0 35.343 28.66 64.003 64 64.003s64-28.66 64-64.003c0-35.334-28.66-64-64-64zM416 544.010c-35.34 0-64 28.66-64 64s28.66 64 64 64c35.34 0 64-28.66 64-64s-28.66-64-64-64zM736 288.006c-35.341 0-64 28.666-64 64.003 0 35.34 28.659 64 64 64s64-28.66 64-64c0-35.338-28.659-64.003-64-64.003z" />
<glyph unicode="&#xe92b;" glyph-name="Edit" d="M400.060 105.476l374.886 484.798c20.373 26.144 27.618 56.369 20.826 87.145-5.884 27.978-23.091 54.58-48.896 74.761l-62.933 49.993c-54.784 43.572-122.701 38.985-161.638-11.008l-42.108-54.626c-5.431-6.834-4.075-16.924 2.718-22.428 0 0 106.398-85.31 108.663-87.145 7.245-6.88 12.676-16.053 14.037-27.060 2.261-21.557-12.681-41.738-34.863-44.49-10.415-1.376-20.378 1.835-27.618 7.797l-111.834 88.979c-5.433 4.082-13.583 3.21-18.111-2.293l-265.77-343.993c-17.205-21.555-23.091-49.532-17.205-76.595l33.957-147.226c1.811-7.799 8.602-13.303 16.752-13.303l149.411 1.835c27.165 0.461 52.52 12.843 69.725 34.859zM609.267 151.326h243.631c23.77 0 43.102-19.584 43.102-43.661 0-24.128-19.332-43.665-43.102-43.665h-243.631c-23.77 0-43.102 19.537-43.102 43.665 0 24.077 19.332 43.661 43.102 43.661z" />
<glyph unicode="&#xe92c;" glyph-name="information" d="M554.668 575.997h-85.334v85.333h85.334zM554.668 234.662h-85.334v256.002h85.334zM512.001 874.664c-56.031 0-111.513-11.036-163.278-32.478s-98.801-52.87-138.421-92.49c-80.015-80.015-124.968-188.54-124.968-301.699s44.952-221.681 124.968-301.7c39.62-39.616 86.655-71.046 138.421-92.486 51.765-21.446 107.247-32.48 163.278-32.48 113.159 0 221.683 44.954 301.702 124.966 80.013 80.019 124.966 188.541 124.966 301.7 0 56.031-11.040 111.513-32.48 163.278s-52.87 98.801-92.486 138.42c-39.622 39.62-86.656 71.048-138.426 92.49-51.763 21.442-107.245 32.478-163.276 32.478z" />
<glyph unicode="&#xe92d;" glyph-name="location1" d="M879.791 599.467c-44.8 197.12-216.747 285.867-367.787 285.867 0 0 0 0-0.427 0-150.613 0-322.987-88.32-367.787-285.44-49.92-220.16 84.907-406.613 206.933-523.947 45.227-43.52 103.253-65.28 161.28-65.28s116.053 21.76 160.853 65.28c122.027 117.333 256.853 303.36 206.933 523.52zM512.004 385.707c-74.24 0-134.4 60.16-134.4 134.4s60.16 134.4 134.4 134.4c74.24 0 134.4-60.16 134.4-134.4s-60.16-134.4-134.4-134.4z" />
<glyph unicode="&#xe92f;" glyph-name="reserve1" d="M937.389 192.006v-42.669c0-70.4 0-128-128-128h-597.334c-128 0-128 57.6-128 128v42.669c0 23.466 19.2 42.666 42.667 42.666h767.999c23.469 0 42.669-19.2 42.669-42.666zM614.829 738.981c2.134 8.533 3.414 16.64 3.84 25.6 1.28 49.493-29.011 93.013-76.8 105.813-71.68 19.627-136.531-34.133-136.531-102.4 0-10.24 1.28-19.627 3.84-29.013-154.028-32.853-269.654-169.813-269.654-333.653v-64c0-23.469 19.2-42.669 42.667-42.669h659.199c23.469 0 42.669 19.2 42.669 42.669v64c0 163.84-115.2 300.373-269.229 333.653zM640.003 458.659h-256c-17.494 0-32 14.509-32 32 0 17.494 14.506 32 32 32h256c17.494 0 32-14.506 32-32 0-17.491-14.506-32-32-32z" />
<glyph unicode="&#xe930;" glyph-name="shop" d="M954.027 607.147l-12.373 118.187c-17.92 128.853-76.373 181.333-201.386 181.333h-459.093c-125.44 0-183.467-52.48-201.814-182.613l-11.52-117.333c-4.267-45.653 8.107-90.027 34.987-124.587 32.427-42.24 82.347-66.133 137.813-66.133 53.76 0 105.387 26.88 137.813 69.973 29.013-43.093 78.507-69.973 133.547-69.973s103.253 25.6 132.693 68.267c32.853-42.24 83.627-68.267 136.533-68.267 56.747 0 107.946 25.173 139.946 69.547 25.6 34.133 37.12 77.227 32.853 121.6zM484.267 249.163c-54.187-5.547-95.147-51.627-95.147-106.24v-116.905c0-11.52 9.387-20.907 20.907-20.907h203.52c11.52 0 20.907 9.387 20.907 20.907v101.972c0.427 89.173-52.053 131.413-150.187 121.173zM911.787 345.597v-127.147c0-117.757-95.573-213.33-213.333-213.33-11.52 0-20.907 9.387-20.907 20.907v101.97c0 54.613-16.64 97.28-49.067 126.293-28.587 26.027-67.413 38.827-115.627 38.827-10.667 0-21.333-0.427-32.853-1.707-75.947-7.68-133.547-71.68-133.547-148.48v-116.903c0-11.52-9.387-20.907-20.907-20.907-117.76 0-213.333 95.573-213.333 213.33v126.293c0 29.867 29.44 49.92 57.173 40.107 11.52-3.84 23.040-6.827 34.987-8.533 5.12-0.853 10.667-1.707 15.787-1.707 6.827-0.853 13.653-1.28 20.48-1.28 49.493 0 98.133 18.347 136.533 49.92 36.693-31.573 84.48-49.92 134.827-49.92 50.773 0 97.707 17.493 134.4 49.067 38.4-31.147 86.187-49.067 134.827-49.067 7.68 0 15.36 0.427 22.613 1.28 5.12 0.427 9.813 0.853 14.507 1.707 13.227 1.707 25.173 5.547 37.12 9.387 27.733 9.387 56.32-11.093 56.32-40.107z" />
</font>
</defs>
</svg>
